<mxfile host="app.diagrams.net" modified="2023-10-29T18:16:46.436Z" agent="Mozilla/5.0 (Windows NT 10.0; Win64; x64; rv:109.0) Gecko/20100101 Firefox/115.0" etag="-nr0tXtMyvApk4SVMAF0" version="22.0.8" type="device">
  <diagram name="Page-1" id="mb4PbYeWeNAP4ctZTTHn">
    <mxGraphModel dx="718" dy="408" grid="1" gridSize="10" guides="1" tooltips="1" connect="1" arrows="1" fold="1" page="1" pageScale="1" pageWidth="850" pageHeight="1100" math="0" shadow="0">
      <root>
        <mxCell id="0" />
        <mxCell id="1" parent="0" />
        <mxCell id="qgsQZ8EboH2lGzhNuOHC-1" value="" style="endArrow=none;html=1;rounded=0;" edge="1" parent="1">
          <mxGeometry width="50" height="50" relative="1" as="geometry">
            <mxPoint x="240" y="150" as="sourcePoint" />
            <mxPoint x="560" y="150" as="targetPoint" />
          </mxGeometry>
        </mxCell>
        <mxCell id="qgsQZ8EboH2lGzhNuOHC-2" value="" style="endArrow=none;html=1;rounded=0;" edge="1" parent="1">
          <mxGeometry width="50" height="50" relative="1" as="geometry">
            <mxPoint x="360" y="170" as="sourcePoint" />
            <mxPoint x="360" y="130" as="targetPoint" />
          </mxGeometry>
        </mxCell>
        <mxCell id="qgsQZ8EboH2lGzhNuOHC-3" value="" style="endArrow=none;html=1;rounded=0;" edge="1" parent="1">
          <mxGeometry width="50" height="50" relative="1" as="geometry">
            <mxPoint x="460" y="170" as="sourcePoint" />
            <mxPoint x="460" y="130" as="targetPoint" />
          </mxGeometry>
        </mxCell>
        <mxCell id="qgsQZ8EboH2lGzhNuOHC-4" value="L" style="text;html=1;strokeColor=none;fillColor=none;align=center;verticalAlign=middle;whiteSpace=wrap;rounded=0;" vertex="1" parent="1">
          <mxGeometry x="380" y="127" width="60" height="30" as="geometry" />
        </mxCell>
        <mxCell id="qgsQZ8EboH2lGzhNuOHC-5" value="L" style="text;html=1;strokeColor=none;fillColor=none;align=center;verticalAlign=middle;whiteSpace=wrap;rounded=0;" vertex="1" parent="1">
          <mxGeometry x="478" y="127" width="60" height="30" as="geometry" />
        </mxCell>
        <mxCell id="qgsQZ8EboH2lGzhNuOHC-6" value="d" style="text;html=1;strokeColor=none;fillColor=none;align=center;verticalAlign=middle;whiteSpace=wrap;rounded=0;" vertex="1" parent="1">
          <mxGeometry x="280" y="126" width="60" height="30" as="geometry" />
        </mxCell>
        <mxCell id="qgsQZ8EboH2lGzhNuOHC-7" value="" style="rounded=1;whiteSpace=wrap;html=1;" vertex="1" parent="1">
          <mxGeometry x="250" y="105" width="30" height="40" as="geometry" />
        </mxCell>
        <mxCell id="qgsQZ8EboH2lGzhNuOHC-8" value="Obj2" style="text;html=1;strokeColor=none;fillColor=none;align=center;verticalAlign=middle;whiteSpace=wrap;rounded=0;" vertex="1" parent="1">
          <mxGeometry x="235" y="109" width="60" height="30" as="geometry" />
        </mxCell>
        <mxCell id="qgsQZ8EboH2lGzhNuOHC-9" value="Cam1" style="ellipse;whiteSpace=wrap;html=1;aspect=fixed;" vertex="1" parent="1">
          <mxGeometry x="340" y="106" width="40" height="40" as="geometry" />
        </mxCell>
        <mxCell id="qgsQZ8EboH2lGzhNuOHC-10" value="Cam1" style="ellipse;whiteSpace=wrap;html=1;aspect=fixed;" vertex="1" parent="1">
          <mxGeometry x="440" y="105" width="40" height="40" as="geometry" />
        </mxCell>
      </root>
    </mxGraphModel>
  </diagram>
</mxfile>
